<?xml version="1.0" standalone="no"?>
<!DOCTYPE svg PUBLIC "-//W3C//DTD SVG 20010904//EN"
 "http://www.w3.org/TR/2001/REC-SVG-20010904/DTD/svg10.dtd">
<svg version="1.0" xmlns="http://www.w3.org/2000/svg"
 width="694.000000pt" height="694.000000pt" viewBox="0 0 694.000000 694.000000"
 preserveAspectRatio="xMidYMid meet">
<metadata>
Created by potrace 1.11, written by Peter Selinger 2001-2013
</metadata>
<g transform="translate(0.000000,694.000000) scale(0.100000,-0.100000)"
fill="#000000" stroke="none">
<path d="M0 3470 l0 -3380 3470 0 3470 0 0 3380 0 3380 -3470 0 -3470 0 0
-3380z m6039 2089 l31 -31 0 -341 0 -342 -24 -30 -24 -30 -1009 -5 -1008 -5
-3 -442 -2 -443 877 -2 c965 -3 907 1 938 -64 23 -48 22 -661 -1 -709 -32 -68
12 -65 -948 -65 l-866 0 0 -440 0 -440 998 -2 c787 -2 1002 -6 1019 -16 51
-28 53 -47 53 -397 0 -339 -2 -353 -44 -387 -20 -16 -115 -18 -1521 -18 -1406
0 -1501 2 -1521 18 -43 34 -44 46 -44 426 l0 366 -960 0 c-1040 0 -999 -2
-1058 53 -51 47 -52 54 -52 392 0 354 1 362 68 413 l35 27 981 5 981 5 0 415
0 415 -995 2 c-763 2 -1000 6 -1018 15 -50 26 -52 40 -52 428 0 402 1 409 65
436 29 12 191 14 1020 14 l985 0 0 368 c1 392 2 401 51 428 20 11 298 13 1521
14 l1496 0 31 -31z"/>
</g>
</svg>
