<svg id="Layer_1" data-name="Layer 1" xmlns="http://www.w3.org/2000/svg" viewBox="0 0 358.34 99.61"><defs><style>.cls-1{fill:#f2f2f2;}</style></defs><title>logo-w-no-bg</title><path class="cls-1" d="M38.18,79.34,16,21.39a1.58,1.58,0,0,1,1.47-2.14H30.05a1.59,1.59,0,0,1,1.49,1.05L46.72,62.9,62,20.3a1.58,1.58,0,0,1,1.48-1.05H76.12a1.57,1.57,0,0,1,1.47,2.14l-22.13,58a1.58,1.58,0,0,1-1.47,1H39.65A1.56,1.56,0,0,1,38.18,79.34Z"/><path class="cls-1" d="M140.37,78.78V20.83a1.57,1.57,0,0,1,1.57-1.58h10.71a1.56,1.56,0,0,1,1.28.67l25.53,35.86V20.83A1.57,1.57,0,0,1,181,19.25h12.22a1.58,1.58,0,0,1,1.58,1.58v58a1.57,1.57,0,0,1-1.58,1.57h-10.8a1.55,1.55,0,0,1-1.28-.66L155.64,43.92V78.78a1.57,1.57,0,0,1-1.57,1.57H141.94A1.57,1.57,0,0,1,140.37,78.78Z"/><path class="cls-1" d="M203.63,78.78V20.83a1.57,1.57,0,0,1,1.57-1.58h24.9q9.3,0,15.65,3.09a20.59,20.59,0,0,1,9.68,9.87q3.31,6.78,3.32,18,0,15.76-7.26,23T230.1,80.35H205.2A1.57,1.57,0,0,1,203.63,78.78ZM218.9,68.59H228a20.72,20.72,0,0,0,8.3-1.47,10,10,0,0,0,5.12-5.46q1.77-4,1.76-11.48t-1.57-11.71a10.1,10.1,0,0,0-4.93-5.79A19.6,19.6,0,0,0,228,31H218.9Z"/><path class="cls-1" d="M86.5,78V21.64a2.39,2.39,0,0,1,2.38-2.39h40.31a2.39,2.39,0,0,1,2.38,2.39v7A2.39,2.39,0,0,1,129.19,31H101.78V43.83h23.89a2.38,2.38,0,0,1,2.39,2.38V53.4a2.38,2.38,0,0,1-2.39,2.38H101.78V68.59h27.41A2.39,2.39,0,0,1,131.57,71v7a2.38,2.38,0,0,1-2.38,2.38H88.88A2.38,2.38,0,0,1,86.5,78Z"/><path class="cls-1" d="M340.83,31a1.58,1.58,0,0,0,1.58-1.58V20.83a1.58,1.58,0,0,0-1.58-1.58H298.92a1.58,1.58,0,0,0-1.58,1.58V31H269.13a1.57,1.57,0,0,0-1.58,1.57v9.66a1.58,1.58,0,0,0,1.58,1.58h28.21v12H270a2.48,2.48,0,0,0-2.47,2.47v7.87A2.47,2.47,0,0,0,270,68.59h27.32V78.78a1.57,1.57,0,0,0,1.58,1.57h41.91a1.57,1.57,0,0,0,1.58-1.57V70.16a1.57,1.57,0,0,0-1.58-1.57H312.62V55.78h24.7a1.57,1.57,0,0,0,1.58-1.57V45.4a1.57,1.57,0,0,0-1.58-1.57h-24.7V31Z"/></svg>