<svg id="Layer_1" data-name="Layer 1" xmlns="http://www.w3.org/2000/svg" viewBox="0 0 358.34 99.61"><defs><style>.cls-1{fill:#f2f2f2;}</style></defs><title>logo-w</title><path class="cls-1" d="M236.69,32.68A19.6,19.6,0,0,0,228,31H218.9V68.59H228a20.72,20.72,0,0,0,8.3-1.47,10,10,0,0,0,5.12-5.46q1.77-4,1.76-11.48t-1.56-11.71A10.15,10.15,0,0,0,236.69,32.68Z"/><path class="cls-1" d="M356.77,0H1.57A1.57,1.57,0,0,0,0,1.57V98a1.57,1.57,0,0,0,1.57,1.58h355.2A1.57,1.57,0,0,0,358.34,98V1.57A1.57,1.57,0,0,0,356.77,0ZM77.59,21.39l-22.13,58a1.58,1.58,0,0,1-1.47,1H39.65a1.56,1.56,0,0,1-1.47-1L16,21.39a1.58,1.58,0,0,1,1.47-2.14H30.05a1.59,1.59,0,0,1,1.49,1.05L46.72,62.9,62,20.3a1.58,1.58,0,0,1,1.48-1.05H76.12A1.57,1.57,0,0,1,77.59,21.39Zm54,7.25A2.39,2.39,0,0,1,129.19,31H101.78V43.83h23.89a2.38,2.38,0,0,1,2.39,2.38V53.4a2.38,2.38,0,0,1-2.39,2.38H101.78V68.59h27.41A2.39,2.39,0,0,1,131.57,71v7a2.38,2.38,0,0,1-2.38,2.38H88.88A2.38,2.38,0,0,1,86.5,78V21.64a2.39,2.39,0,0,1,2.38-2.39h40.31a2.39,2.39,0,0,1,2.38,2.39Zm63.26,50.14a1.57,1.57,0,0,1-1.58,1.57h-10.8a1.55,1.55,0,0,1-1.28-.66L155.64,43.92V78.78a1.57,1.57,0,0,1-1.57,1.57H141.94a1.57,1.57,0,0,1-1.57-1.57V20.83a1.57,1.57,0,0,1,1.57-1.58h10.71a1.56,1.56,0,0,1,1.28.67l25.53,35.86V20.83A1.57,1.57,0,0,1,181,19.25h12.22a1.58,1.58,0,0,1,1.58,1.58Zm56.66-5.64q-7.25,7.22-21.39,7.21H205.2a1.57,1.57,0,0,1-1.57-1.57V20.83a1.57,1.57,0,0,1,1.57-1.58h24.9q9.3,0,15.65,3.09a20.59,20.59,0,0,1,9.68,9.87q3.31,6.78,3.32,18Q258.75,65.94,251.49,73.14Zm90.92-43.7A1.58,1.58,0,0,1,340.83,31H312.62V43.83h24.7a1.57,1.57,0,0,1,1.58,1.57v8.81a1.57,1.57,0,0,1-1.58,1.57h-24.7V68.59h28.21a1.57,1.57,0,0,1,1.58,1.57v8.62a1.57,1.57,0,0,1-1.58,1.57H298.92a1.57,1.57,0,0,1-1.58-1.57V68.59H270a2.47,2.47,0,0,1-2.47-2.47V58.25A2.48,2.48,0,0,1,270,55.78h27.32v-12H269.13a1.58,1.58,0,0,1-1.58-1.58V32.55A1.57,1.57,0,0,1,269.13,31h28.21V20.83a1.58,1.58,0,0,1,1.58-1.58h41.91a1.58,1.58,0,0,1,1.58,1.58Z"/></svg>